# xmcd CD database file
#
# Track frame offsets:
#	150
#	21965
#	41149
#	58031
#	81443
#	99655
#	123115
#	134718
#	156398
#	175012
#
# Disc length: 2613 seconds
#
# Revision: 0
# Processed by: cddbd v1.5.2PL0 Copyright (c) Steve Scherf et al.
# Submitted via: CDex 1.51
#
DISCID=8a0a330a
DTITLE=Zara McFarlane - Until tomorrow
DYEAR=2011
DGENRE=Jazz
TTITLE0=More than mine
TTITLE1=Captured (part 3)
TTITLE2=Mama done
TTITLE3=Until tomorrow
TTITLE4=Blossom Tree
TTITLE5=Feed the spirit (The children and the Warlock)
TTITLE6=Walking sleep (Thoughts)
TTITLE7=Chiaroscuro
TTITLE8=Desire
TTITLE9=More than mine (alternate take)
EXTD=YEAR: 2011
EXTT0=
EXTT1=
EXTT2=
EXTT3=
EXTT4=
EXTT5=
EXTT6=
EXTT7=
EXTT8=
EXTT9=
PLAYORDER=
